<svg width="126" height="17" viewBox="0 0 126 17" fill="none" xmlns="http://www.w3.org/2000/svg">
<path d="M6.94518 3.53383C7.58728 1.93315 7.90828 1.1328 8.42988 1.02188C8.56698 0.992708 8.70878 0.992708 8.84588 1.02188C9.36748 1.1328 9.68848 1.93315 10.3306 3.53383C10.6958 4.44411 10.8783 4.89925 11.2199 5.20882C11.3158 5.29565 11.4198 5.37298 11.5305 5.43973C11.9254 5.67771 12.4182 5.72185 13.404 5.81014C15.0728 5.95959 15.9072 6.03431 16.162 6.51004C16.2147 6.60854 16.2506 6.71524 16.2681 6.82564C16.3526 7.35864 15.7392 7.91674 14.5124 9.03284L14.1717 9.34284C13.5982 9.86464 13.3114 10.1255 13.1455 10.4511C13.046 10.6464 12.9793 10.8567 12.9481 11.0737C12.896 11.4354 12.9799 11.8139 13.1479 12.5709L13.2079 12.8413C13.5091 14.1989 13.6597 14.8776 13.4717 15.2113C13.3028 15.511 12.9918 15.7028 12.6482 15.7192C12.2657 15.7375 11.7267 15.2983 10.6487 14.4199C9.93848 13.8412 9.58338 13.5518 9.18918 13.4388C8.82888 13.3355 8.44688 13.3355 8.08668 13.4388C7.69238 13.5518 7.33728 13.8412 6.62711 14.4199C5.54913 15.2983 5.01015 15.7375 4.62763 15.7192C4.28403 15.7028 3.97298 15.511 3.80411 15.2113C3.61612 14.8776 3.76672 14.1989 4.06792 12.8413L4.12792 12.5709C4.29588 11.8139 4.37985 11.4354 4.32774 11.0737C4.29648 10.8567 4.22976 10.6464 4.13026 10.4511C3.96439 10.1255 3.67762 9.86464 3.10407 9.34284L2.7634 9.03284C1.53661 7.91674 0.923217 7.35864 1.00769 6.82564C1.02518 6.71524 1.06106 6.60854 1.11383 6.51004C1.36863 6.03431 2.20302 5.95959 3.87178 5.81014C4.85756 5.72185 5.35045 5.67771 5.74529 5.43973C5.85604 5.37298 5.96005 5.29565 6.05587 5.20882C6.39748 4.89925 6.58005 4.44411 6.94518 3.53383Z" fill="#F5C044" stroke="#F5C044" stroke-width="2"/>
<path d="M33.9452 3.53383C34.5873 1.93315 34.9083 1.1328 35.4299 1.02188C35.567 0.992708 35.7088 0.992708 35.8459 1.02188C36.3675 1.1328 36.6885 1.93315 37.3306 3.53383C37.6958 4.44411 37.8783 4.89925 38.2199 5.20882C38.3158 5.29565 38.4198 5.37298 38.5305 5.43973C38.9254 5.67771 39.4182 5.72185 40.404 5.81014C42.0728 5.95959 42.9072 6.03431 43.162 6.51004C43.2147 6.60854 43.2506 6.71524 43.2681 6.82564C43.3526 7.35864 42.7392 7.91674 41.5124 9.03284L41.1717 9.34284C40.5982 9.86464 40.3114 10.1255 40.1455 10.4511C40.046 10.6464 39.9793 10.8567 39.9481 11.0737C39.896 11.4354 39.9799 11.8139 40.1479 12.5709L40.2079 12.8413C40.5091 14.1989 40.6597 14.8776 40.4717 15.2113C40.3028 15.511 39.9918 15.7028 39.6482 15.7192C39.2657 15.7375 38.7267 15.2983 37.6487 14.4199C36.9385 13.8412 36.5834 13.5518 36.1892 13.4388C35.8289 13.3355 35.4469 13.3355 35.0867 13.4388C34.6924 13.5518 34.3373 13.8412 33.6271 14.4199C32.5491 15.2983 32.0101 15.7375 31.6276 15.7192C31.284 15.7028 30.973 15.511 30.8041 15.2113C30.6161 14.8776 30.7667 14.1989 31.0679 12.8413L31.1279 12.5709C31.2959 11.8139 31.3798 11.4354 31.3277 11.0737C31.2965 10.8567 31.2298 10.6464 31.1303 10.4511C30.9644 10.1255 30.6776 9.86464 30.1041 9.34284L29.7634 9.03284C28.5366 7.91674 27.9232 7.35864 28.0077 6.82564C28.0252 6.71524 28.0611 6.60854 28.1138 6.51004C28.3686 6.03431 29.203 5.95959 30.8718 5.81014C31.8576 5.72185 32.3504 5.67771 32.7453 5.43973C32.856 5.37298 32.96 5.29565 33.0559 5.20882C33.3975 4.89925 33.58 4.44411 33.9452 3.53383Z" fill="#F5C044" stroke="#F5C044" stroke-width="2"/>
<path d="M60.9452 3.53383C61.5873 1.93315 61.9083 1.1328 62.4299 1.02188C62.567 0.992708 62.7088 0.992708 62.8459 1.02188C63.3675 1.1328 63.6885 1.93315 64.3306 3.53383C64.6958 4.44411 64.8783 4.89925 65.2199 5.20882C65.3158 5.29565 65.4198 5.37298 65.5305 5.43973C65.9254 5.67771 66.4182 5.72185 67.404 5.81014C69.0728 5.95959 69.9072 6.03431 70.162 6.51004C70.2147 6.60854 70.2506 6.71524 70.2681 6.82564C70.3526 7.35864 69.7392 7.91674 68.5124 9.03284L68.1717 9.34284C67.5982 9.86464 67.3114 10.1255 67.1455 10.4511C67.046 10.6464 66.9793 10.8567 66.9481 11.0737C66.896 11.4354 66.9799 11.8139 67.1479 12.5709L67.2079 12.8413C67.5091 14.1989 67.6597 14.8776 67.4717 15.2113C67.3028 15.511 66.9918 15.7028 66.6482 15.7192C66.2657 15.7375 65.7267 15.2983 64.6487 14.4199C63.9385 13.8412 63.5834 13.5518 63.1892 13.4388C62.8289 13.3355 62.4469 13.3355 62.0867 13.4388C61.6924 13.5518 61.3373 13.8412 60.6271 14.4199C59.5491 15.2983 59.0101 15.7375 58.6276 15.7192C58.284 15.7028 57.973 15.511 57.8041 15.2113C57.6161 14.8776 57.7667 14.1989 58.0679 12.8413L58.1279 12.5709C58.2959 11.8139 58.3798 11.4354 58.3277 11.0737C58.2965 10.8567 58.2298 10.6464 58.1303 10.4511C57.9644 10.1255 57.6776 9.86464 57.1041 9.34284L56.7634 9.03284C55.5366 7.91674 54.9232 7.35864 55.0077 6.82564C55.0252 6.71524 55.0611 6.60854 55.1138 6.51004C55.3686 6.03431 56.203 5.95959 57.8718 5.81014C58.8576 5.72185 59.3504 5.67771 59.7453 5.43973C59.856 5.37298 59.96 5.29565 60.0559 5.20882C60.3975 4.89925 60.58 4.44411 60.9452 3.53383Z" fill="#F5C044" stroke="#F5C044" stroke-width="2"/>
<path d="M87.9452 3.53383C88.5873 1.93315 88.9083 1.1328 89.4299 1.02188C89.567 0.992708 89.7088 0.992708 89.8459 1.02188C90.3675 1.1328 90.6885 1.93315 91.3306 3.53383C91.6958 4.44411 91.8783 4.89925 92.2199 5.20882C92.3158 5.29565 92.4198 5.37298 92.5305 5.43973C92.9254 5.67771 93.4182 5.72185 94.404 5.81014C96.0728 5.95959 96.9072 6.03431 97.162 6.51004C97.2147 6.60854 97.2506 6.71524 97.2681 6.82564C97.3526 7.35864 96.7392 7.91674 95.5124 9.03284L95.1717 9.34284C94.5982 9.86464 94.3114 10.1255 94.1455 10.4511C94.046 10.6464 93.9793 10.8567 93.9481 11.0737C93.896 11.4354 93.9799 11.8139 94.1479 12.5709L94.2079 12.8413C94.5091 14.1989 94.6597 14.8776 94.4717 15.2113C94.3028 15.511 93.9918 15.7028 93.6482 15.7192C93.2657 15.7375 92.7267 15.2983 91.6487 14.4199C90.9385 13.8412 90.5834 13.5518 90.1892 13.4388C89.8289 13.3355 89.4469 13.3355 89.0867 13.4388C88.6924 13.5518 88.3373 13.8412 87.6271 14.4199C86.5491 15.2983 86.0101 15.7375 85.6276 15.7192C85.284 15.7028 84.973 15.511 84.8041 15.2113C84.6161 14.8776 84.7667 14.1989 85.0679 12.8413L85.1279 12.5709C85.2959 11.8139 85.3798 11.4354 85.3277 11.0737C85.2965 10.8567 85.2298 10.6464 85.1303 10.4511C84.9644 10.1255 84.6776 9.86464 84.1041 9.34284L83.7634 9.03284C82.5366 7.91674 81.9232 7.35864 82.0077 6.82564C82.0252 6.71524 82.0611 6.60854 82.1138 6.51004C82.3686 6.03431 83.203 5.95959 84.8718 5.81014C85.8576 5.72185 86.3504 5.67771 86.7453 5.43973C86.856 5.37298 86.96 5.29565 87.0559 5.20882C87.3975 4.89925 87.58 4.44411 87.9452 3.53383Z" fill="#F5C044" stroke="#F5C044" stroke-width="2"/>
<path d="M114.945 3.53383C115.587 1.93315 115.908 1.1328 116.43 1.02188C116.567 0.992708 116.709 0.992708 116.846 1.02188C117.367 1.1328 117.688 1.93315 118.331 3.53383C118.696 4.44411 118.878 4.89925 119.22 5.20882C119.316 5.29565 119.42 5.37298 119.53 5.43973C119.925 5.67771 120.418 5.72185 121.404 5.81014C123.073 5.95959 123.907 6.03431 124.162 6.51004C124.215 6.60854 124.251 6.71524 124.268 6.82564C124.353 7.35864 123.739 7.91674 122.512 9.03284L122.172 9.34284C121.598 9.86464 121.311 10.1255 121.145 10.4511C121.046 10.6464 120.979 10.8567 120.948 11.0737C120.896 11.4354 120.98 11.8139 121.148 12.5709L121.208 12.8413C121.509 14.1989 121.66 14.8776 121.472 15.2113C121.303 15.511 120.992 15.7028 120.648 15.7192C120.266 15.7375 119.727 15.2983 118.649 14.4199C117.938 13.8412 117.583 13.5518 117.189 13.4388C116.829 13.3355 116.447 13.3355 116.087 13.4388C115.692 13.5518 115.337 13.8412 114.627 14.4199C113.549 15.2983 113.01 15.7375 112.628 15.7192C112.284 15.7028 111.973 15.511 111.804 15.2113C111.616 14.8776 111.767 14.1989 112.068 12.8413L112.128 12.5709C112.296 11.8139 112.38 11.4354 112.328 11.0737C112.296 10.8567 112.23 10.6464 112.13 10.4511C111.964 10.1255 111.678 9.86464 111.104 9.34284L110.763 9.03284C109.537 7.91674 108.923 7.35864 109.008 6.82564C109.025 6.71524 109.061 6.60854 109.114 6.51004C109.369 6.03431 110.203 5.95959 111.872 5.81014C112.858 5.72185 113.35 5.67771 113.745 5.43973C113.856 5.37298 113.96 5.29565 114.056 5.20882C114.397 4.89925 114.58 4.44411 114.945 3.53383Z" fill="#D4D4D8" stroke="#D4D4D8" stroke-width="2"/>
</svg>
