<svg width="18" height="18" viewBox="0 0 18 18" fill="none" xmlns="http://www.w3.org/2000/svg">
<path fill-rule="evenodd" clip-rule="evenodd" d="M9 18C13.9706 18 18 13.9706 18 9C18 7.1666 17.4518 5.46124 16.5103 4.03891L9.355 11.9893C8.6624 12.7589 7.4968 12.8726 6.66844 12.2513L3.4 9.8C2.95817 9.4686 2.86863 8.8418 3.2 8.4C3.53137 7.9582 4.15817 7.8686 4.6 8.2L7.8684 10.6513L15.214 2.48955C13.5986 0.94717 11.4099 0 9 0C4.02944 0 0 4.02944 0 9C0 13.9706 4.02944 18 9 18Z" fill="#4CA154"/>
</svg>
