<svg width="67" height="65" viewBox="0 0 67 65" fill="none" xmlns="http://www.w3.org/2000/svg">
<path d="M26.9622 13.7865C29.4422 7.60412 30.682 4.51291 32.6966 4.0845C33.2261 3.97183 33.7738 3.97183 34.3033 4.0845C36.3179 4.51291 37.5577 7.60412 40.0377 13.7865C41.4483 17.3023 42.1531 19.0602 43.4725 20.2558C43.8429 20.5912 44.2446 20.8899 44.6721 21.1477C46.1974 22.0668 48.1007 22.2373 51.9082 22.5783C58.3537 23.1555 61.5764 23.4441 62.5605 25.2816C62.764 25.662 62.9027 26.0741 62.9703 26.5005C63.2967 28.5591 60.9275 30.7147 56.1892 35.0254L54.8733 36.2228C52.6583 38.2381 51.5506 39.2458 50.9098 40.5034C50.5255 41.2577 50.2679 42.0699 50.1474 42.9081C49.9461 44.3051 50.2702 45.767 50.9191 48.6907L51.1508 49.7351C52.3141 54.9786 52.8958 57.6 52.1697 58.8888C51.5173 60.0464 50.3162 60.7872 48.9891 60.8505C47.5117 60.9212 45.4299 59.2248 41.2663 55.8322C38.5233 53.5971 37.1518 52.4793 35.6293 52.0429C34.2377 51.6439 32.7623 51.6439 31.3711 52.0429C29.8481 52.4793 28.4766 53.5971 25.7337 55.8322C21.5702 59.2248 19.4885 60.9212 18.0111 60.8505C16.684 60.7872 15.4826 60.0464 14.8304 58.8888C14.1043 57.6 14.686 54.9786 15.8493 49.7351L16.081 48.6907C16.7298 45.767 17.0541 44.3051 16.8528 42.9081C16.7321 42.0699 16.4744 41.2577 16.0901 40.5034C15.4494 39.2458 14.3418 38.2381 12.1266 36.2228L10.8108 35.0254C6.07255 30.7147 3.70344 28.5591 4.02969 26.5005C4.09724 26.0741 4.23582 25.662 4.43964 25.2816C5.42376 23.4441 8.64644 23.1555 15.0917 22.5783C18.8991 22.2373 20.8028 22.0668 22.3278 21.1477C22.7556 20.8899 23.1573 20.5912 23.5274 20.2558C24.8468 19.0602 25.552 17.3023 26.9622 13.7865Z" fill="#F5C044" stroke="#F5C044" stroke-width="7.72465"/>
</svg>
